# WaveFront *.obj file (generated by Autodesk ATF)

mtllib 9b571ddb-f62a-4719-9e4d-d24e8c593e27.mtl

g Body2

v 2.000000 67.092288 -31.681558
v 2.000000 62.084177 -6.694306
v 0.000000 62.084177 -6.694306
v 0.000000 67.092288 -31.681558
v 2.000000 46.713223 -31.756897
v 0.000000 46.713223 -31.756897
v 2.000000 46.620780 -6.751473
v 0.000000 46.620780 -6.751473
v 2.000000 68.467452 11.208475
v 2.000000 68.467452 26.208475
v 0.000000 68.467452 26.208475
v 0.000000 68.467452 11.208475
v 2.000000 63.467452 6.208475
v 0.000000 63.467452 6.208475
v 2.000000 48.467452 6.208475
v 0.000000 48.467452 6.208475
v 2.000000 43.467452 16.208475
v 0.000000 43.467452 16.208475
v 2.000000 43.467452 21.208475
v 0.000000 43.467452 21.208475
v 2.000000 48.467452 31.208475
v 0.000000 48.467452 31.208475
v 2.000000 63.467452 31.208475
v 0.000000 63.467452 31.208475
v 0.000000 150.000000 -50.000000
v 0.000000 150.000000 50.000000
v 2.000000 150.000000 50.000000
v 2.000000 150.000000 -50.000000
v 0.000000 -25.503054 -50.000000
v 2.000000 -25.503054 -50.000000
v 0.000000 -25.503054 50.000000
v 2.000000 -25.503054 50.000000
vt 0.000000 0.200000 0.000000
vt -2.548419 0.200000 0.000000
vt 0.000000 0.000000 0.000000
vt -2.548419 0.000000 0.000000
vt -0.000000 0.200000 0.000000
vt -2.037920 0.200000 0.000000
vt -0.000000 0.000000 0.000000
vt -2.037920 0.000000 0.000000
vt 0.000000 0.200000 0.000000
vt -2.500560 0.200000 0.000000
vt 0.000000 0.000000 0.000000
vt -2.500560 0.000000 0.000000
vt 0.000000 0.200000 0.000000
vt -1.546350 0.200000 0.000000
vt 0.000000 0.000000 0.000000
vt -1.546350 0.000000 0.000000
vt -0.000000 0.200000 0.000000
vt -1.500000 0.200000 0.000000
vt -0.000000 0.000000 0.000000
vt -1.500000 0.000000 0.000000
vt -0.000000 0.200000 0.000000
vt -0.707107 0.200000 0.000000
vt -0.000000 0.000000 0.000000
vt -0.707107 0.000000 0.000000
vt -0.000000 0.200000 0.000000
vt -1.500000 0.200000 0.000000
vt -0.000000 0.000000 0.000000
vt -1.500000 0.000000 0.000000
vt -0.000000 0.200000 0.000000
vt -1.118034 0.200000 0.000000
vt -0.000000 0.000000 0.000000
vt -1.118034 0.000000 0.000000
vt 0.000000 0.200000 0.000000
vt -0.500000 0.200000 0.000000
vt 0.000000 0.000000 0.000000
vt -0.500000 0.000000 0.000000
vt 0.000000 0.200000 0.000000
vt -1.118034 0.200000 0.000000
vt 0.000000 0.000000 0.000000
vt -1.118034 0.000000 0.000000
vt 0.000000 0.200000 0.000000
vt -1.500000 0.200000 0.000000
vt 0.000000 0.000000 0.000000
vt -1.500000 0.000000 0.000000
vt -0.000000 0.200000 0.000000
vt -0.707107 0.200000 0.000000
vt -0.000000 0.000000 0.000000
vt -0.707107 0.000000 0.000000
vt 0.000000 0.000000 0.000000
vt 10.000000 0.000000 0.000000
vt 0.000000 0.200000 0.000000
vt 10.000000 0.200000 0.000000
vt 0.000000 0.000000 0.000000
vt 17.550305 0.000000 0.000000
vt -0.000000 0.200000 0.000000
vt 17.550305 0.200000 0.000000
vt 0.000000 0.000000 0.000000
vt 10.000000 0.000000 0.000000
vt 0.000000 0.200000 0.000000
vt 10.000000 0.200000 0.000000
vt 0.000000 0.000000 0.000000
vt 17.550305 0.000000 0.000000
vt 0.000000 0.200000 0.000000
vt 17.550305 0.200000 0.000000
vt 3.168156 0.484381 0.000000
vt 3.175690 -1.553525 0.000000
vt 5.000000 -8.775153 0.000000
vt 0.675147 -1.562769 0.000000
vt -5.000000 -8.775153 0.000000
vt -1.620847 -1.878102 0.000000
vt -2.120847 -1.878102 0.000000
vt -0.620847 -1.378102 0.000000
vt 0.669431 -0.016430 0.000000
vt -0.620847 0.121898 0.000000
vt -1.120847 0.621898 0.000000
vt 5.000000 8.775153 0.000000
vt -5.000000 8.775153 0.000000
vt -3.120847 -1.378102 0.000000
vt -3.120847 0.121898 0.000000
vt -2.620847 0.621898 0.000000
vt -3.175690 -1.553525 0.000000
vt -5.000000 -8.775153 0.000000
vt -0.675147 -1.562769 0.000000
vt 5.000000 -8.775153 0.000000
vt 1.620847 -1.878102 0.000000
vt 2.120847 -1.878102 0.000000
vt 3.120847 -1.378102 0.000000
vt 3.120847 0.121898 0.000000
vt 5.000000 8.775153 0.000000
vt 2.620847 0.621898 0.000000
vt 1.120847 0.621898 0.000000
vt -5.000000 8.775153 0.000000
vt -0.669431 -0.016430 0.000000
vt -3.168156 0.484381 0.000000
vt 0.620847 -1.378102 0.000000
vt 0.620847 0.121898 0.000000
vn 0.000000 -0.098050 -0.019652
vn 0.000000 -0.098050 -0.019652
vn 0.000000 -0.098050 -0.019652
vn 0.000000 -0.098050 -0.019652
vn 0.000000 -0.000370 0.099999
vn 0.000000 -0.000370 0.099999
vn 0.000000 -0.000370 0.099999
vn 0.000000 -0.000370 0.099999
vn 0.000000 0.099999 0.000370
vn 0.000000 0.099999 0.000370
vn 0.000000 0.099999 0.000370
vn 0.000000 0.099999 0.000370
vn -0.000000 0.000370 -0.099999
vn -0.000000 0.000370 -0.099999
vn -0.000000 0.000370 -0.099999
vn -0.000000 0.000370 -0.099999
vn 0.000000 -0.100000 0.000000
vn 0.000000 -0.100000 0.000000
vn 0.000000 -0.100000 0.000000
vn 0.000000 -0.100000 0.000000
vn 0.000000 -0.070711 0.070711
vn 0.000000 -0.070711 0.070711
vn 0.000000 -0.070711 0.070711
vn 0.000000 -0.070711 0.070711
vn 0.000000 0.000000 0.100000
vn 0.000000 0.000000 0.100000
vn 0.000000 0.000000 0.100000
vn 0.000000 0.000000 0.100000
vn 0.000000 0.089443 0.044721
vn 0.000000 0.089443 0.044721
vn 0.000000 0.089443 0.044721
vn 0.000000 0.089443 0.044721
vn -0.000000 0.100000 -0.000000
vn -0.000000 0.100000 -0.000000
vn -0.000000 0.100000 -0.000000
vn -0.000000 0.100000 -0.000000
vn -0.000000 0.089443 -0.044721
vn -0.000000 0.089443 -0.044721
vn -0.000000 0.089443 -0.044721
vn -0.000000 0.089443 -0.044721
vn 0.000000 0.000000 -0.100000
vn 0.000000 0.000000 -0.100000
vn 0.000000 0.000000 -0.100000
vn 0.000000 0.000000 -0.100000
vn 0.000000 -0.070711 -0.070711
vn 0.000000 -0.070711 -0.070711
vn 0.000000 -0.070711 -0.070711
vn 0.000000 -0.070711 -0.070711
vn 0.000000 0.100000 0.000000
vn 0.000000 0.100000 0.000000
vn 0.000000 0.100000 0.000000
vn 0.000000 0.100000 0.000000
vn 0.000000 0.000000 -0.100000
vn 0.000000 0.000000 -0.100000
vn 0.000000 0.000000 -0.100000
vn 0.000000 0.000000 -0.100000
vn 0.000000 -0.100000 0.000000
vn 0.000000 -0.100000 0.000000
vn 0.000000 -0.100000 0.000000
vn 0.000000 -0.100000 0.000000
vn 0.000000 0.000000 0.100000
vn 0.000000 0.000000 0.100000
vn 0.000000 0.000000 0.100000
vn 0.000000 0.000000 0.100000
vn 0.100000 0.000000 0.000000
vn 0.100000 0.000000 0.000000
vn 0.100000 0.000000 0.000000
vn 0.100000 0.000000 0.000000
vn 0.100000 0.000000 0.000000
vn 0.100000 0.000000 0.000000
vn 0.100000 0.000000 0.000000
vn 0.100000 0.000000 0.000000
vn 0.100000 0.000000 0.000000
vn 0.100000 0.000000 0.000000
vn 0.100000 0.000000 0.000000
vn 0.100000 0.000000 0.000000
vn 0.100000 0.000000 0.000000
vn 0.100000 0.000000 0.000000
vn 0.100000 0.000000 0.000000
vn 0.100000 0.000000 0.000000
vn -0.100000 0.000000 0.000000
vn -0.100000 0.000000 0.000000
vn -0.100000 0.000000 0.000000
vn -0.100000 0.000000 0.000000
vn -0.100000 0.000000 0.000000
vn -0.100000 0.000000 0.000000
vn -0.100000 0.000000 0.000000
vn -0.100000 0.000000 0.000000
vn -0.100000 0.000000 0.000000
vn -0.100000 0.000000 0.000000
vn -0.100000 0.000000 0.000000
vn -0.100000 0.000000 0.000000
vn -0.100000 0.000000 0.000000
vn -0.100000 0.000000 0.000000
vn -0.100000 0.000000 0.000000
vn -0.100000 0.000000 0.000000
usemtl Steel_-_Satin
f 1/1/1 2/2/2 4/3/3
f 4/3/3 2/2/2 3/4/4
f 5/5/5 1/6/6 6/7/7
f 6/7/7 1/6/6 4/8/8
f 7/9/9 5/10/10 8/11/11
f 8/11/11 5/10/10 6/12/12
f 2/13/13 7/14/14 3/15/15
f 3/15/15 7/14/14 8/16/16
f 9/17/17 10/18/18 12/19/19
f 12/19/19 10/18/18 11/20/20
f 13/21/21 9/22/22 14/23/23
f 14/23/23 9/22/22 12/24/24
f 15/25/25 13/26/26 16/27/27
f 16/27/27 13/26/26 14/28/28
f 17/29/29 15/30/30 18/31/31
f 18/31/31 15/30/30 16/32/32
f 19/33/33 17/34/34 20/35/35
f 20/35/35 17/34/34 18/36/36
f 21/37/37 19/38/38 22/39/39
f 22/39/39 19/38/38 20/40/40
f 23/41/41 21/42/42 24/43/43
f 24/43/43 21/42/42 22/44/44
f 10/45/45 23/46/46 11/47/47
f 11/47/47 23/46/46 24/48/48
f 25/49/49 26/50/50 28/51/51
f 28/51/51 26/50/50 27/52/52
f 29/53/53 25/54/54 30/55/55
f 30/55/55 25/54/54 28/56/56
f 31/57/57 29/58/58 32/59/59
f 32/59/59 29/58/58 30/60/60
f 26/61/61 31/62/62 27/63/63
f 27/63/63 31/62/62 32/64/64
f 1/65/65 5/66/66 30/67/67
f 30/67/67 5/66/66 7/68/68
f 30/67/67 7/68/68 32/69/69
f 32/69/69 7/68/68 17/70/70
f 32/69/69 17/70/70 19/71/71
f 17/70/70 7/68/68 15/72/72
f 15/72/72 7/68/68 2/73/73
f 15/72/72 2/73/73 13/74/74
f 13/74/74 2/73/73 9/75/75
f 9/75/75 2/73/73 28/76/76
f 9/75/75 28/76/76 27/77/77
f 2/73/73 1/65/65 28/76/76
f 28/76/76 1/65/65 30/67/67
f 19/71/71 21/78/78 32/69/69
f 32/69/69 21/78/78 23/79/79
f 32/69/69 23/79/79 27/77/77
f 27/77/77 23/79/79 10/80/80
f 27/77/77 10/80/80 9/75/75
f 6/81/81 29/82/82 8/83/83
f 8/83/83 29/82/82 31/84/84
f 8/83/83 31/84/84 18/85/85
f 18/85/85 31/84/84 20/86/86
f 20/86/86 31/84/84 22/87/87
f 22/87/87 31/84/84 24/88/88
f 24/88/88 31/84/84 26/89/89
f 24/88/88 26/89/89 11/90/90
f 11/90/90 26/89/89 12/91/91
f 12/91/91 26/89/89 25/92/92
f 12/91/91 25/92/92 3/93/93
f 3/93/93 25/92/92 4/94/94
f 4/94/94 25/92/92 29/82/82
f 4/94/94 29/82/82 6/81/81
f 8/83/83 16/95/95 3/93/93
f 3/93/93 16/95/95 14/96/96
f 3/93/93 14/96/96 12/91/91
f 18/85/85 16/95/95 8/83/83
# 32 vertices
# 96 texture params
# 96 normals
# 68 facets

# 1 groups
